<?xml version="1.0" standalone="no"?>
<!DOCTYPE svg PUBLIC "-//W3C//DTD SVG 20010904//EN"
 "http://www.w3.org/TR/2001/REC-SVG-20010904/DTD/svg10.dtd">
<svg version="1.0" xmlns="http://www.w3.org/2000/svg"
 width="200.000000pt" height="200.000000pt" viewBox="0 0 200.000000 200.000000"
 preserveAspectRatio="xMidYMid meet">

<g transform="translate(0.000000,200.000000) scale(0.100000,-0.100000)"
fill="#000000" stroke="none">
<path d="M0 1000 l0 -1000 1000 0 1000 0 0 1000 0 1000 -1000 0 -1000 0 0
-1000z m985 855 c-32 -90 -13 -161 83 -314 71 -114 96 -179 87 -228 -8 -43 6
-42 43 3 37 45 62 130 62 215 l1 64 39 -45 c41 -46 70 -113 70 -160 0 -43 -20
-90 -70 -165 -56 -82 -64 -105 -55 -151 7 -41 20 -44 28 -6 8 40 41 77 109
124 37 24 65 52 72 69 6 16 15 28 21 26 19 -7 97 -173 99 -212 1 -35 -2 -39
-37 -51 -20 -7 -61 -29 -90 -48 -51 -34 -195 -173 -239 -231 -21 -29 -21 -28
17 5 102 91 254 180 331 196 31 6 32 5 39 -37 3 -24 8 -51 11 -60 4 -13 -7
-17 -55 -22 -102 -9 -221 -78 -389 -225 -34 -30 -60 -57 -58 -59 8 -9 169 28
216 48 58 26 84 51 105 102 9 23 20 49 24 57 10 20 89 60 121 60 25 0 24 0 -7
-20 -52 -31 -80 -102 -63 -160 5 -19 24 -49 42 -67 l32 -33 -47 -68 c-25 -37
-57 -78 -71 -91 l-25 -23 -72 36 c-71 36 -103 44 -113 28 -3 -5 13 -46 35 -93
l39 -84 -32 -27 c-18 -16 -38 -28 -45 -28 -6 0 -26 20 -44 45 -18 25 -34 45
-35 45 -2 0 3 -21 11 -47 20 -66 19 -78 -11 -92 -15 -6 -27 -10 -28 -9 -1 2
-12 19 -24 38 l-22 35 0 -47 c0 -46 -1 -48 -29 -48 -28 0 -30 2 -41 70 -7 39
-16 68 -21 64 -5 -3 -9 -11 -9 -19 0 -8 -5 -37 -11 -65 -10 -47 -13 -51 -37
-48 -23 3 -28 9 -32 43 l-5 40 -18 -33 c-20 -37 -18 -36 -52 -20 -27 12 -30
23 -16 60 4 13 11 37 15 53 7 26 3 24 -29 -20 -19 -27 -40 -49 -46 -47 -22 5
-69 46 -69 59 0 8 16 46 35 86 19 39 35 78 35 84 0 23 -42 14 -118 -24 l-75
-37 -31 36 c-17 19 -48 61 -69 91 l-39 56 36 35 c69 70 57 175 -27 226 -31 19
-31 20 -7 20 14 0 48 -11 77 -24 43 -20 52 -30 58 -58 12 -58 50 -104 107
-131 52 -24 215 -63 225 -54 6 7 -158 149 -222 192 -82 54 -158 86 -221 92
l-56 6 7 56 c4 31 9 58 11 60 7 7 87 -20 149 -51 64 -32 150 -92 203 -141 17
-17 32 -26 32 -20 0 6 -42 54 -92 106 -94 95 -190 166 -255 188 -33 11 -35 13
-28 48 4 20 28 76 53 125 l47 88 8 -42 c7 -35 26 -60 108 -145 54 -57 99 -112
99 -122 1 -17 2 -17 15 1 9 11 15 42 15 70 0 42 -9 70 -52 155 -49 97 -53 110
-53 175 0 58 5 82 28 129 16 31 33 57 38 57 6 0 7 -5 4 -10 -14 -23 9 -93 55
-168 26 -44 53 -96 60 -117 12 -36 14 -37 26 -20 16 22 34 80 34 111 0 12 -12
66 -26 120 -43 166 -26 257 68 368 22 26 42 45 44 44 2 -2 -3 -22 -11 -43z"/>
<path d="M956 430 c-20 -22 -36 -50 -36 -63 0 -21 4 -22 80 -22 79 0 80 0 80
25 0 24 -61 100 -79 100 -5 0 -25 -18 -45 -40z"/>
</g>
</svg>
